<?xml version="1.0" standalone="no"?>
<!DOCTYPE svg PUBLIC "-//W3C//DTD SVG 20010904//EN"
 "http://www.w3.org/TR/2001/REC-SVG-20010904/DTD/svg10.dtd">
<svg version="1.0" xmlns="http://www.w3.org/2000/svg"
 width="200.000000pt" height="200.000000pt" viewBox="0 0 200.000000 200.000000"
 preserveAspectRatio="xMidYMid meet">
<metadata>
Created by potrace 1.11, written by Peter Selinger 2001-2013
</metadata>
<g transform="translate(0.000000,200.000000) scale(0.100000,-0.100000)"
fill="#000000" stroke="none">
<path d="M0 1000 l0 -1000 1000 0 1000 0 0 1000 0 1000 -1000 0 -1000 0 0
-1000z m1850 821 c0 -10 -14 -45 -30 -76 -23 -43 -26 -56 -14 -51 13 5 15 1
12 -21 -3 -16 -9 -36 -13 -46 -6 -15 -4 -17 19 -11 33 8 33 -3 0 -51 -18 -27
-22 -40 -14 -45 7 -4 9 -16 5 -29 -5 -15 -2 -21 9 -21 25 0 19 -14 -24 -59
-42 -43 -48 -56 -27 -65 8 -3 5 -11 -10 -24 -27 -23 -29 -32 -8 -32 23 0 6
-29 -26 -46 -16 -8 -29 -23 -29 -33 0 -10 -7 -21 -15 -25 -8 -3 -15 -10 -15
-16 0 -5 7 -10 15 -10 31 0 13 -22 -35 -43 -54 -24 -59 -39 -14 -48 l29 -6
-28 -11 c-21 -9 -27 -17 -22 -31 4 -14 -1 -20 -21 -25 -32 -8 -25 -17 24 -32
l37 -11 -33 -9 c-38 -11 -43 -27 -11 -34 35 -9 33 -27 -3 -35 -52 -12 -54 -17
-8 -34 23 -9 42 -20 41 -26 0 -5 -28 -12 -62 -15 -61 -5 -61 -5 -40 -24 24
-22 19 -36 -15 -36 -13 0 -33 -9 -43 -19 -17 -17 -18 -20 -3 -35 15 -15 13
-16 -22 -16 -20 0 -46 5 -58 11 -33 18 -35 -1 -3 -26 42 -34 24 -41 -40 -17
-60 23 -69 18 -29 -19 14 -13 35 -37 47 -53 l21 -29 -30 6 c-16 4 -40 10 -53
13 -22 6 -22 5 -11 -15 16 -30 5 -39 -20 -16 -30 27 -34 12 -10 -34 22 -44 12
-55 -26 -26 -25 19 -34 19 -34 -1 0 -11 -5 -14 -16 -10 -13 5 -15 2 -10 -16
20 -74 20 -71 -2 -59 -27 15 -32 14 -32 -4 0 -19 -9 -19 -32 2 -17 15 -18 14
-18 -15 0 -46 -22 -41 -65 14 -19 26 -35 41 -35 34 0 -8 -8 -10 -26 -6 -24 6
-26 5 -20 -18 16 -66 -34 -20 -86 79 -21 39 -28 46 -33 33 -12 -30 -22 -21
-50 46 -15 35 -38 75 -51 89 -22 24 -24 33 -22 117 2 49 4 90 5 90 2 0 21 -7
43 -16 56 -23 179 -15 243 14 48 23 147 114 147 136 0 6 9 30 21 51 17 34 19
51 14 114 -12 130 -78 229 -191 285 -42 21 -66 26 -127 26 -86 0 -107 -5 -108
-29 0 -14 -1 -14 -7 2 -7 16 -11 15 -52 -7 l-45 -24 -3 -65 -3 -66 47 -7 c45
-6 127 -1 172 12 12 3 22 2 22 -4 0 -14 -52 -22 -151 -22 l-89 0 0 -442 c0
-243 -2 -439 -5 -436 -3 2 -5 203 -5 445 l0 439 -48 21 c-26 12 -52 18 -59 14
-20 -11 -111 -158 -104 -169 1 -1 -5 -15 -13 -30 -29 -53 -54 -118 -71 -189
-9 -40 -19 -73 -21 -73 -2 0 -4 25 -4 56 0 33 4 53 10 49 5 -3 12 7 16 22 11
44 63 170 91 221 15 26 31 56 37 66 6 11 19 29 29 40 17 20 17 22 -41 76 -60
56 -104 116 -117 158 -3 12 -11 20 -16 17 -5 -4 -9 20 -8 57 l1 63 13 -53 c15
-63 45 -132 57 -132 4 0 8 -8 8 -17 0 -22 106 -123 128 -123 10 1 39 21 65 45
l48 44 -2 136 c0 75 2 139 5 142 3 4 6 -57 6 -135 l0 -141 57 26 c48 22 70 26
154 26 93 0 99 -1 160 -36 35 -20 79 -54 97 -77 18 -22 38 -40 44 -40 18 0
189 89 219 114 16 14 38 28 50 31 37 12 88 52 137 107 26 29 49 55 52 58 17
16 68 89 80 115 13 28 14 29 18 8 2 -13 7 -23 12 -23 5 0 28 27 52 60 44 61
68 75 68 41z m-1523 -443 c-3 -7 -5 -2 -5 12 0 14 2 19 5 13 2 -7 2 -19 0 -25z"/>
<path d="M583 1338 l-32 -33 30 -18 c51 -29 61 -23 57 30 -2 25 -8 48 -13 50
-6 2 -25 -11 -42 -29z"/>
</g>
</svg>
